<?xml version="1.0" standalone="no"?>
<!DOCTYPE svg PUBLIC "-//W3C//DTD SVG 20010904//EN"
 "http://www.w3.org/TR/2001/REC-SVG-20010904/DTD/svg10.dtd">
<svg version="1.0" xmlns="http://www.w3.org/2000/svg"
 width="512.000000pt" height="512.000000pt" viewBox="0 0 512.000000 512.000000"
 preserveAspectRatio="xMidYMid meet">

<g transform="translate(0.000000,512.000000) scale(0.100000,-0.100000)"
fill="#000000" stroke="none">
<path d="M4360 4887 c-80 -18 -145 -54 -196 -109 -64 -69 -364 -672 -364 -732
1 -54 30 -117 70 -148 l32 -25 -30 -58 -29 -59 -80 0 c-112 -1 -135 -20 -213
-177 -33 -65 -60 -132 -60 -147 0 -38 32 -77 83 -104 23 -11 43 -22 45 -23 2
-2 -49 -107 -112 -234 l-116 -231 -140 0 -140 0 0 284 c0 156 3 291 6 300 3 9
41 45 84 80 135 112 222 250 261 414 30 122 23 283 -15 397 -54 159 -156 293
-293 385 -62 42 -82 50 -120 50 -39 0 -50 -5 -84 -39 l-39 -39 0 -213 0 -214
-85 -68 -85 -69 -53 43 c-28 23 -67 56 -84 73 l-33 30 0 203 c0 225 -5 250
-60 278 -55 29 -101 20 -184 -35 -307 -206 -414 -618 -246 -950 44 -88 115
-174 201 -245 44 -37 84 -78 90 -92 5 -14 8 -139 7 -297 l-3 -271 -344 0 -344
0 -166 463 -165 463 15 42 c19 56 54 74 112 57 38 -10 51 -8 147 25 131 46
165 67 190 116 34 66 27 107 -64 359 -47 128 -93 245 -103 258 -59 78 -133 90
-267 41 -99 -36 -144 -69 -193 -146 -40 -63 -68 -74 -122 -48 -20 10 -67 20
-106 22 -66 5 -79 2 -225 -52 -185 -68 -286 -119 -366 -183 -160 -129 -263
-336 -264 -530 0 -72 25 -203 46 -245 21 -40 71 -67 124 -67 53 0 91 22 126
74 33 49 96 80 159 79 57 0 142 -33 175 -68 12 -13 69 -155 136 -341 63 -175
114 -320 114 -321 0 -1 -109 -3 -242 -5 -231 -3 -245 -4 -286 -26 -116 -62
-176 -158 -176 -282 0 -57 6 -88 23 -128 30 -66 114 -145 181 -169 l49 -17 3
-776 c3 -770 3 -775 25 -840 12 -36 38 -90 57 -120 l35 -55 -214 -5 -215 -5
-26 -26 c-29 -29 -35 -80 -14 -119 28 -53 -100 -50 2370 -50 2460 0 2342 -2
2369 48 20 38 13 96 -15 123 -25 23 -30 24 -239 29 l-214 5 35 55 c19 30 45
84 57 120 22 65 22 70 25 843 2 601 5 777 15 777 7 0 35 11 62 24 233 110 241
435 14 561 l-54 30 -277 3 c-153 2 -278 5 -278 8 0 4 90 186 95 192 2 2 26 -8
54 -22 102 -52 126 -37 207 127 44 88 64 141 64 166 -1 50 -31 113 -69 143
l-32 25 32 65 c30 62 34 66 56 57 65 -24 163 5 202 60 46 64 330 663 337 709
4 26 2 74 -3 107 -25 145 -108 245 -271 328 -59 30 -127 62 -152 70 -67 22
-158 28 -220 14z m252 -244 c107 -52 161 -96 184 -150 30 -69 22 -93 -131
-407 -120 -245 -148 -296 -163 -292 -74 22 -131 13 -182 -31 -18 -15 -54 -71
-86 -134 -44 -89 -54 -118 -54 -159 0 -60 17 -96 63 -137 l34 -30 -21 -40 -21
-41 -254 124 c-140 68 -256 126 -258 128 -3 2 5 23 17 46 18 35 24 40 43 34
36 -12 112 -7 143 9 46 24 69 55 123 166 71 146 68 217 -12 288 l-36 31 143
290 c87 174 155 300 172 316 67 62 152 59 296 -11z m-3098 -185 c77 -204 124
-343 120 -349 -11 -18 -105 -38 -176 -37 -128 2 -211 -51 -266 -170 -21 -46
-23 -64 -20 -135 4 -76 15 -114 151 -491 81 -225 147 -413 147 -418 0 -5 -62
-7 -137 -6 l-138 3 -126 353 c-72 200 -139 370 -154 393 -117 168 -392 221
-562 108 l-43 -28 0 57 c0 123 49 232 150 332 78 78 141 113 338 186 l147 55
60 -23 c124 -46 252 -14 322 82 61 85 69 93 114 110 24 10 47 18 51 19 3 1 13
-18 22 -41z m874 -315 c103 -89 246 -199 272 -211 19 -8 59 -14 88 -14 65 0
94 17 236 134 125 104 126 106 126 298 l1 135 42 -46 c181 -197 171 -537 -21
-728 -32 -31 -81 -75 -110 -99 -30 -25 -64 -65 -80 -95 l-27 -52 -3 -313 -3
-312 -167 2 -167 3 -5 310 c-6 361 -7 368 -108 453 -196 164 -262 285 -262
483 0 136 54 275 143 367 l32 33 6 -173 c3 -95 6 -174 7 -175z m1506 -975 l84
-42 -69 -138 -69 -138 -110 0 c-61 0 -110 2 -110 5 0 13 176 355 182 355 4 0
46 -19 92 -42z m669 -532 c18 -7 40 -23 50 -34 27 -29 33 -92 13 -130 -35 -67
129 -62 -2067 -62 -1977 0 -1992 0 -2024 20 -81 50 -69 167 20 206 45 20 3961
20 4008 0z m-3571 -673 l3 -248 28 -47 c18 -31 44 -57 75 -75 l47 -28 250 0
c273 0 278 1 339 61 59 60 61 67 64 337 l3 247 759 0 759 0 3 -247 3 -248 28
-47 c18 -31 44 -57 75 -75 l47 -28 250 0 250 0 47 28 c31 18 57 44 75 75 l28
47 3 248 3 247 125 0 124 0 -2 -767 -3 -768 -28 -57 c-41 -83 -121 -153 -205
-178 -66 -20 -85 -20 -1607 -18 l-1540 3 -56 28 c-67 32 -142 109 -172 175
-22 47 -22 50 -25 815 l-2 767 124 0 125 0 3 -247z m608 22 l0 -225 -205 0
-205 0 0 225 0 225 205 0 205 0 0 -225z m2330 0 l0 -225 -205 0 -205 0 0 225
0 225 205 0 205 0 0 -225z"/>
<path d="M2245 1831 c-11 -5 -29 -19 -40 -31 -19 -21 -20 -36 -20 -542 l0
-520 33 -29 c36 -32 69 -36 111 -15 51 27 51 30 51 567 0 449 -2 504 -17 529
-25 44 -72 60 -118 41z"/>
<path d="M2788 1823 c-14 -9 -31 -27 -37 -40 -16 -35 -15 -1013 1 -1048 14
-30 55 -55 92 -55 14 0 40 13 58 29 l33 29 0 521 0 521 -26 25 c-33 33 -85 41
-121 18z"/>
<path d="M1096 1319 l-26 -31 0 -275 0 -275 29 -29 c22 -21 39 -29 66 -29 27
0 44 8 66 29 l29 29 0 280 0 279 -26 27 c-40 39 -103 37 -138 -5z"/>
<path d="M1656 1324 l-26 -27 0 -279 0 -280 29 -29 c22 -21 39 -29 66 -29 27
0 44 8 66 29 l29 29 0 275 0 275 -26 31 c-35 42 -98 44 -138 5z"/>
<path d="M3326 1319 l-26 -31 0 -275 0 -275 29 -29 c22 -21 39 -29 66 -29 27
0 44 8 66 29 l29 29 0 280 0 279 -26 27 c-40 39 -103 37 -138 -5z"/>
<path d="M3886 1324 l-26 -27 0 -279 0 -280 29 -29 c22 -21 39 -29 66 -29 27
0 44 8 66 29 l29 29 0 275 0 275 -26 31 c-35 42 -98 44 -138 5z"/>
</g>
</svg>
