<svg version="1.0" xmlns="http://www.w3.org/2000/svg" width="1300.000000pt" height="1300.000000pt" viewBox="0 0 1300.000000 1300.000000" preserveAspectRatio="xMidYMid meet">

<g transform="translate(0.000000,1300.000000) scale(0.100000,-0.100000)"
fill="#000000" stroke="none">
<path d="M4560 11410 c-63 -8 -369 -41 -755 -80 -228 -23 -241 -26 -328 -61
-141 -58 -279 -178 -374 -326 -62 -95 -200 -444 -271 -683 -110 -370 -127
-735 -51 -1145 29 -158 251 -1060 480 -1955 33 -129 87 -341 120 -470 33 -129
81 -314 105 -410 25 -96 63 -242 84 -325 21 -82 48 -174 59 -202 28 -71 80
-174 98 -195 8 -9 22 -30 31 -47 30 -55 148 -176 216 -221 l66 -44 -113 -59
c-218 -114 -518 -317 -739 -501 -110 -91 -103 -62 -106 -435 -4 -394 -2 -423
43 -468 27 -27 40 -33 78 -33 57 0 79 17 162 131 93 127 197 246 263 302 345
293 837 570 1139 640 60 14 62 13 119 -14 32 -16 62 -33 66 -37 6 -6 3 -35 -7
-71 -76 -292 -58 -658 46 -950 120 -337 346 -578 604 -646 65 -17 212 -20 261
-6 l32 9 -1 -72 c-1 -121 12 -148 124 -261 54 -55 152 -145 218 -200 102 -85
122 -106 131 -140 37 -136 92 -226 210 -346 264 -268 688 -429 1305 -494 125
-14 214 -16 410 -12 568 12 1032 124 1381 332 289 172 473 398 556 680 28 92
31 118 38 330 12 323 -4 416 -97 585 -96 172 -266 345 -473 479 -186 120 -503
254 -742 312 -27 6 -48 14 -48 18 0 3 42 24 93 45 300 126 624 283 748 361
114 73 208 182 260 303 111 254 168 700 174 1353 3 266 6 321 19 347 49 96 58
276 26 523 -58 444 -177 985 -299 1361 -82 252 -154 414 -243 546 -26 40 -57
96 -67 123 -75 195 -321 442 -641 641 -408 253 -1271 599 -2490 997 -641 209
-669 215 -942 229 -136 7 -399 0 -453 -11 -28 -7 -31 -4 -55 45 -37 77 -112
148 -204 193 -86 43 -144 51 -266 35z m145 -240 c45 -17 98 -62 83 -71 -7 -4
-101 -19 -208 -34 -107 -14 -240 -33 -295 -41 -55 -8 -199 -28 -320 -45 -121
-16 -245 -36 -274 -45 -192 -55 -299 -168 -379 -399 -12 -33 -40 -112 -62
-175 -96 -269 -170 -497 -170 -525 0 -101 133 -152 202 -77 16 17 43 80 73
167 77 229 217 618 233 650 8 17 24 41 36 53 22 25 75 56 82 49 2 -2 -3 -24
-12 -48 -24 -62 -29 -290 -15 -634 35 -840 44 -1028 66 -1430 14 -242 31 -476
39 -520 43 -238 151 -407 327 -510 58 -34 237 -114 449 -200 58 -24 173 -71
255 -105 143 -58 1287 -516 1465 -585 47 -18 148 -58 225 -88 221 -87 321
-126 455 -177 69 -26 179 -68 245 -93 303 -115 575 -207 690 -234 108 -25 407
-22 545 5 260 52 371 83 654 179 159 54 517 189 591 223 56 25 242 100 249
100 14 0 -3 -516 -25 -755 -54 -598 -120 -773 -338 -899 -239 -137 -734 -355
-1081 -476 -63 -22 -192 -59 -258 -75 -97 -23 -325 -17 -462 13 -182 40 -395
108 -466 149 -114 66 -422 223 -709 361 -148 71 -359 173 -469 226 -109 53
-200 96 -201 96 -2 0 -159 76 -348 169 -419 205 -489 245 -817 463 -342 227
-675 468 -1025 742 -49 38 -91 70 -92 71 -1 0 -36 135 -78 300 -42 165 -112
442 -157 615 -285 1121 -385 1540 -413 1745 -22 157 -22 432 0 580 28 190 102
439 216 725 64 160 97 217 172 297 136 144 166 155 596 199 185 18 410 42 501
53 208 23 194 23 225 11z m1036 -279 c36 -6 147 -36 245 -67 220 -69 930 -302
964 -316 14 -5 99 -36 190 -69 151 -53 227 -80 466 -168 111 -40 495 -193 619
-246 495 -211 821 -411 1018 -624 53 -58 120 -151 113 -158 -14 -15 -520 -148
-885 -233 -243 -57 -473 -91 -621 -93 -100 -2 -141 2 -160 12 -13 8 -92 27
-175 42 -352 65 -654 136 -860 202 -77 25 -210 66 -295 92 -85 25 -173 52
-195 60 -22 8 -78 25 -125 38 -72 21 -693 207 -1155 347 -71 21 -292 87 -490
146 -198 58 -385 114 -415 124 l-55 17 -6 69 c-4 38 -7 155 -8 260 -1 219 7
256 70 328 49 55 139 100 229 115 36 6 259 38 495 70 237 33 441 62 455 65 44
8 513 -2 581 -13z m-1638 -1200 c89 -27 234 -70 322 -96 88 -26 241 -71 340
-101 99 -30 232 -70 295 -89 785 -235 1060 -318 1455 -440 132 -41 258 -79
280 -85 36 -8 47 -19 88 -82 26 -40 79 -134 116 -208 262 -517 448 -1217 526
-1984 22 -211 31 -192 -77 -152 -100 36 -487 184 -683 261 -66 26 -183 72
-260 102 -921 360 -2057 819 -2223 899 -119 58 -201 155 -240 284 -33 108 -47
304 -87 1195 -8 187 -17 386 -21 443 -4 56 -3 102 0 102 4 0 80 -22 169 -49z
m5451 -803 c68 -141 142 -348 202 -569 155 -574 267 -1240 240 -1422 -6 -42
-11 -49 -43 -62 -19 -8 -39 -15 -43 -15 -4 0 -11 37 -14 83 -32 408 -89 786
-131 866 -24 48 -76 62 -186 50 -128 -13 -240 -34 -394 -74 -193 -50 -466
-143 -492 -167 -41 -38 -46 -76 -24 -164 12 -44 27 -124 35 -179 35 -238 82
-831 67 -847 -3 -3 -58 -20 -121 -36 -357 -94 -560 -102 -817 -33 l-41 11 -7
88 c-65 862 -262 1666 -549 2246 -35 69 -61 126 -58 126 19 0 382 -75 437 -90
170 -47 383 -33 800 52 236 48 879 211 990 251 79 29 77 30 149 -115z m30
-1395 c25 -135 44 -291 61 -499 8 -104 17 -210 19 -235 l4 -47 -51 -20 c-338
-134 -424 -167 -496 -193 -46 -16 -89 -29 -96 -29 -7 0 -12 20 -13 53 -8 206
-51 651 -78 800 -9 48 -15 89 -13 90 33 22 408 123 543 147 56 10 102 18 102
19 1 1 9 -38 18 -86z m-5686 -1346 c432 -325 823 -591 1146 -779 17 -10 145
-75 283 -145 139 -69 251 -128 249 -130 -2 -2 -32 1 -67 7 -128 23 -291 -17
-396 -97 l-33 -25 -152 80 c-84 44 -238 124 -343 179 -104 55 -255 133 -335
174 -125 64 -155 84 -220 149 -123 122 -173 235 -259 583 -15 59 -23 107 -19
107 4 0 70 -46 146 -103z m529 -1099 c45 -24 83 -45 83 -48 0 -3 -33 -18 -73
-34 -130 -52 -343 -163 -486 -252 -190 -119 -460 -321 -549 -411 l-73 -73 3
132 3 132 60 49 c81 65 327 241 419 299 201 127 437 239 520 247 5 1 47 -18
93 -41z m1648 -188 c333 -157 955 -463 955 -470 0 -3 -67 -29 -148 -59 -81
-30 -168 -62 -193 -72 l-46 -18 -144 65 c-201 90 -188 80 -223 159 -75 170
-167 298 -286 400 -44 38 -80 70 -80 72 0 2 21 -7 48 -20 26 -13 79 -39 117
-57z m-491 -24 c214 -81 387 -256 480 -486 75 -184 92 -463 41 -661 -41 -158
-135 -288 -243 -336 -49 -21 -68 -24 -137 -21 -69 2 -92 8 -150 38 -260 132
-439 520 -438 950 0 80 5 173 11 208 15 87 61 233 81 256 22 26 82 63 122 75
52 16 157 5 233 -23z m1616 -761 c0 -66 -4 -115 -9 -115 -6 0 -36 -15 -68 -34
-113 -66 -615 -337 -618 -334 -2 2 10 41 26 88 18 55 32 128 40 203 l12 117
36 -6 c27 -4 63 5 146 36 61 23 139 52 175 65 195 71 234 86 239 90 16 17 21
-8 21 -110z m2149 -171 c244 -119 422 -255 536 -409 112 -151 153 -279 134
-425 -7 -55 -6 -77 4 -89 11 -14 10 -14 -5 -2 -16 12 -18 11 -18 -2 0 -23 -73
-160 -111 -209 -174 -223 -488 -408 -889 -521 -190 -54 -182 -53 -173 -20 5
16 8 69 8 118 0 83 -3 95 -34 153 -86 159 -236 257 -488 319 -93 23 -129 26
-258 26 -199 0 -333 -29 -485 -104 -85 -42 -118 -66 -176 -123 -98 -99 -145
-211 -129 -312 4 -29 3 -44 -5 -44 -26 0 -308 114 -370 150 -8 5 -55 32 -105
60 -179 104 -371 251 -555 427 l-114 109 12 41 c21 71 77 113 316 236 191 99
534 284 704 379 l52 30 1 -119 c1 -160 0 -179 -19 -221 -22 -51 -21 -177 1
-219 29 -54 77 -103 128 -128 92 -47 149 -53 679 -75 278 -11 661 -27 852 -36
l347 -17 72 23 c82 27 171 88 211 146 65 94 74 186 29 297 -44 108 -253 559
-274 590 -11 18 -13 27 -5 27 6 0 64 -25 127 -56z m-350 -86 c27 -19 51 -64
137 -253 58 -126 116 -253 130 -281 31 -66 30 -79 -8 -115 -60 -54 17 -54
-1103 -4 -181 8 -404 17 -495 20 -222 9 -267 22 -254 72 4 14 28 31 75 52 l69
31 145 -45 c79 -25 158 -45 175 -45 48 0 87 25 106 70 15 34 22 40 39 35 11
-4 75 -9 142 -12 93 -4 139 -1 200 12 148 33 263 101 335 199 27 38 31 40 76
37 86 -4 132 55 132 172 0 35 3 67 7 70 14 14 61 6 92 -15z"/>
<path d="M5445 4688 c-115 -42 -175 -179 -175 -398 0 -127 9 -193 45 -315 51
-178 122 -311 220 -411 79 -81 132 -108 212 -109 54 0 66 4 100 31 80 65 121
167 130 324 23 397 -216 859 -458 885 -24 2 -57 0 -74 -7z"/>
</g>
</svg>
