<?xml version="1.0" standalone="no"?>
<!DOCTYPE svg PUBLIC "-//W3C//DTD SVG 20010904//EN"
 "http://www.w3.org/TR/2001/REC-SVG-20010904/DTD/svg10.dtd">
<svg version="1.0" xmlns="http://www.w3.org/2000/svg"
 width="200.000000pt" height="200.000000pt" viewBox="0 0 200.000000 200.000000"
 preserveAspectRatio="xMidYMid meet">

<g transform="translate(0.000000,200.000000) scale(0.100000,-0.100000)"
fill="#000000" stroke="none">
<path d="M935 1930 c-267 -48 -465 -287 -465 -561 0 -40 -4 -58 -15 -62 -10
-4 -15 -25 -17 -67 l-3 -61 -50 -17 c-158 -54 -272 -181 -311 -348 -12 -55
-15 -115 -12 -304 3 -269 9 -292 94 -370 80 -73 88 -75 359 -75 227 0 242 1
280 22 90 48 138 126 139 223 1 79 -30 148 -86 193 l-38 30 0 269 c0 295 -1
302 -60 352 -18 14 -38 26 -46 26 -10 0 -14 14 -14 54 0 35 -5 60 -15 70 -23
22 -20 133 6 201 77 207 318 302 515 205 70 -34 140 -104 172 -173 38 -80 42
-144 42 -628 l0 -468 -27 -3 c-23 -2 -34 -15 -61 -65 l-33 -63 -58 0 c-63 0
-107 -22 -143 -71 -25 -33 -37 -142 -18 -164 19 -23 841 -23 860 0 19 22 7
131 -18 164 -36 49 -80 71 -143 71 l-58 0 -33 63 c-27 50 -38 63 -60 65 l-28
3 0 508 c0 563 0 567 -66 692 -65 123 -191 229 -321 269 -76 23 -198 32 -268
20z m248 -80 c124 -38 229 -127 288 -242 58 -114 59 -126 59 -670 l0 -498 -30
0 -30 0 0 485 c0 320 -4 502 -11 537 -65 304 -413 446 -673 273 -109 -72 -171
-181 -189 -331 -11 -93 -12 -94 -39 -94 -27 0 -28 2 -28 48 0 234 139 423 365
498 63 20 212 17 288 -6z m-563 -630 l0 -30 -60 0 -60 0 0 30 0 30 60 0 60 0
0 -30z m104 -131 l26 -31 0 -249 0 -249 -51 0 c-82 0 -129 -19 -184 -75 -94
-94 -102 -224 -19 -332 l25 -33 -79 0 c-161 0 -244 35 -289 121 -19 35 -23 58
-23 136 l0 93 68 0 c79 0 132 21 180 71 53 55 62 104 62 349 0 119 3 220 7
223 3 4 61 7 129 7 l122 0 26 -31z m-374 -484 c-28 -46 -92 -75 -164 -75 l-57
0 3 148 c3 141 4 150 35 214 34 73 102 147 162 177 l36 19 3 -225 c2 -212 1
-227 -18 -258z m416 -124 c62 -28 97 -80 102 -152 5 -72 -8 -108 -59 -154 -46
-41 -72 -49 -144 -43 -66 6 -119 42 -146 102 -73 160 87 320 247 247z m854
-130 c20 -39 14 -41 -120 -41 -134 0 -140 2 -120 41 10 17 22 19 120 19 98 0
110 -2 120 -19z m219 -127 c25 -21 31 -33 31 -65 l0 -39 -370 0 -370 0 0 39
c0 32 6 44 31 65 l31 26 308 0 308 0 31 -26z"/>
<path d="M660 403 c-50 -18 -76 -70 -60 -119 22 -67 100 -85 151 -35 50 50 33
127 -33 150 -34 12 -36 12 -58 4z m56 -78 c7 -18 -13 -45 -33 -45 -17 0 -27
24 -19 45 7 20 45 19 52 0z"/>
</g>
</svg>
