<?xml version="1.0" standalone="no"?>
<!DOCTYPE svg PUBLIC "-//W3C//DTD SVG 20010904//EN"
 "http://www.w3.org/TR/2001/REC-SVG-20010904/DTD/svg10.dtd">
<svg version="1.0" xmlns="http://www.w3.org/2000/svg"
 width="512.000000pt" height="512.000000pt" viewBox="0 0 512.000000 512.000000"
 preserveAspectRatio="xMidYMid meet">

<g transform="translate(0.000000,512.000000) scale(0.100000,-0.100000)"
fill="#000000" stroke="none">
<path d="M243 5106 c-88 -28 -176 -107 -216 -194 l-22 -47 0 -2305 0 -2305 22
-47 c30 -66 105 -143 172 -175 l56 -28 2305 0 2305 0 56 28 c67 32 142 109
172 175 l22 47 0 2305 0 2305 -27 55 c-35 71 -97 133 -167 168 l-56 27 -2290
2 c-1865 1 -2298 -1 -2332 -11z m1367 -168 c-513 -221 -901 -541 -1193 -983
-64 -98 -179 -315 -235 -445 -15 -35 -16 1287 -1 1327 14 37 57 82 94 99 24
11 161 13 695 13 484 0 658 -3 640 -11z m1290 -13 c346 -52 691 -184 975 -372
148 -98 221 -157 353 -287 203 -198 354 -408 477 -659 168 -347 239 -656 239
-1047 0 -243 -15 -369 -69 -585 -83 -328 -246 -654 -460 -919 -85 -106 -268
-288 -372 -369 -185 -146 -472 -305 -689 -380 -266 -93 -498 -131 -794 -131
-391 0 -700 71 -1047 239 -482 235 -862 616 -1098 1100 -168 344 -239 655
-239 1045 0 243 15 369 69 585 170 675 635 1248 1260 1555 284 139 540 210
880 244 83 8 414 -4 515 -19z m1937 14 c38 -14 83 -57 99 -96 11 -26 14 -153
13 -695 0 -483 -3 -656 -11 -638 -6 14 -44 93 -84 175 -245 507 -662 924
-1169 1169 -82 40 -161 78 -175 84 -35 15 1287 16 1327 1z m-4572 -3504 c244
-504 664 -924 1170 -1169 83 -40 161 -78 175 -84 18 -8 -155 -11 -638 -11
-542 -1 -669 2 -695 13 -39 16 -82 61 -96 99 -15 40 -14 1362 1 1327 6 -14 43
-92 83 -175z m4680 -1133 c-7 -40 -59 -101 -102 -118 -26 -11 -160 -14 -695
-13 -483 0 -656 3 -638 11 508 219 893 534 1180 966 87 129 183 308 231 426
l24 59 3 -649 c1 -357 0 -664 -3 -682z"/>
<path d="M390 4767 c-32 -16 -54 -61 -45 -94 8 -33 88 -117 130 -137 30 -15
38 -15 68 -2 41 16 62 63 47 101 -13 33 -87 113 -121 131 -34 17 -47 17 -79 1z"/>
<path d="M2395 4774 c-575 -61 -1019 -266 -1401 -648 -339 -339 -545 -740
-625 -1216 -29 -178 -32 -487 -6 -660 76 -496 304 -943 652 -1278 343 -331
757 -535 1235 -609 156 -23 472 -23 625 0 475 75 893 280 1224 601 359 349
580 781 658 1286 24 156 24 461 -1 620 -76 503 -298 937 -657 1286 -331 320
-756 530 -1219 599 -103 15 -406 27 -485 19z m472 -190 l112 -17 7 -44 c9 -59
-12 -320 -36 -473 -28 -171 -82 -377 -147 -565 -62 -182 -70 -214 -54 -244 7
-12 51 -41 99 -65 48 -25 102 -56 121 -70 22 -16 48 -26 69 -26 41 0 70 27
195 185 220 275 373 569 451 863 l32 123 95 -72 c52 -40 141 -120 199 -178
106 -106 260 -300 260 -326 0 -15 -157 -164 -265 -250 -169 -136 -437 -299
-700 -427 -144 -70 -150 -79 -113 -185 15 -43 33 -103 39 -133 13 -65 32 -98
62 -109 12 -5 74 -4 137 1 406 32 782 145 1062 318 65 41 78 46 82 32 34 -115
40 -472 12 -659 l-19 -123 -35 -6 c-55 -10 -341 13 -502 40 -186 32 -345 73
-545 143 -182 62 -214 70 -244 54 -12 -7 -41 -51 -65 -99 -25 -48 -56 -102
-70 -121 -42 -56 -36 -95 22 -149 140 -131 382 -301 562 -395 141 -74 311
-140 448 -175 l114 -28 -73 -95 c-40 -51 -120 -141 -178 -199 -106 -105 -300
-260 -325 -260 -19 0 -172 163 -259 275 -148 191 -248 352 -377 610 -119 236
-113 232 -242 188 -51 -17 -111 -35 -133 -38 -49 -8 -83 -29 -94 -58 -11 -29
4 -219 29 -377 51 -317 176 -660 312 -857 33 -49 36 -47 -73 -62 -198 -27
-421 -23 -626 11 -72 12 -73 12 -79 47 -10 49 12 334 36 481 28 173 81 376
147 565 30 88 57 174 60 191 7 47 -12 73 -75 101 -32 14 -87 45 -123 69 -88
58 -118 58 -172 2 -70 -74 -198 -239 -273 -353 -142 -216 -242 -435 -298 -652
l-32 -124 -84 63 c-117 86 -302 273 -394 396 -42 57 -76 109 -76 117 0 16 141
150 252 240 179 144 447 307 743 451 114 55 119 67 78 186 -18 51 -35 112 -38
136 -4 24 -17 55 -29 69 -20 24 -28 25 -97 24 -387 -8 -854 -144 -1156 -337
-60 -38 -56 -44 -74 86 -19 133 -17 413 5 557 l19 123 35 6 c50 10 334 -12
482 -36 173 -28 376 -81 565 -147 182 -62 214 -70 244 -54 12 7 41 51 65 99
25 48 56 102 70 121 16 22 26 48 26 69 0 41 -27 70 -185 195 -275 220 -568
373 -859 450 l-127 33 72 95 c40 52 120 141 178 199 103 102 301 260 326 260
16 0 152 -143 239 -252 147 -183 265 -372 401 -643 111 -222 111 -222 222
-183 43 15 103 33 133 39 65 13 98 32 109 62 5 12 5 72 0 132 -33 405 -140
769 -311 1052 -36 60 -51 93 -43 96 6 3 54 10 106 16 52 6 110 13 129 15 69 8
327 -4 437 -20z m-819 -126 c176 -262 288 -604 327 -999 l7 -66 -28 -6 c-16
-4 -39 -9 -51 -13 -19 -5 -28 7 -88 128 -149 296 -300 518 -519 760 l-96 107
38 20 c77 39 310 131 359 141 1 0 24 -33 51 -72z m1336 -25 c44 -19 101 -46
125 -60 l43 -25 -7 -56 c-34 -271 -243 -688 -492 -981 l-29 -34 -46 27 -46 27
29 77 c107 284 174 630 195 1004 l6 107 70 -25 c39 -14 107 -41 152 -61z
m-2412 -919 c258 -69 581 -246 828 -455 l43 -36 -27 -45 -27 -46 -77 29 c-279
106 -632 175 -994 194 l-117 7 25 70 c37 102 91 226 121 277 l25 43 54 -7 c30
-3 96 -18 146 -31z m3418 -34 c30 -60 106 -248 124 -308 l15 -53 -92 -60
c-246 -162 -555 -265 -927 -309 -117 -14 -117 -14 -124 18 -3 15 -8 37 -12 50
-6 20 2 26 77 61 280 130 604 350 839 570 41 38 76 70 77 71 2 0 12 -18 23
-40z m-2656 -1127 c3 -16 8 -38 12 -51 6 -20 -2 -26 -80 -63 -281 -131 -562
-320 -809 -543 l-108 -98 -40 88 c-45 97 -81 190 -103 265 l-15 49 72 48 c224
151 500 253 808 301 252 39 255 39 263 4z m1887 -263 c240 -68 447 -102 796
-127 l102 -8 -40 -105 c-22 -58 -58 -143 -82 -190 l-42 -85 -55 2 c-137 6
-425 115 -635 240 -108 64 -262 173 -354 251 l-34 29 27 45 27 46 77 -29 c42
-16 138 -47 213 -69z m-1476 -275 l43 -26 -35 -92 c-47 -127 -108 -356 -137
-517 -23 -123 -33 -216 -54 -487 l-7 -92 -104 40 c-142 53 -271 117 -278 137
-9 23 23 171 62 288 81 236 202 452 388 687 38 48 71 87 74 87 2 0 24 -11 48
-25z m761 -197 c148 -296 299 -518 518 -760 l96 -107 -40 -21 c-59 -30 -248
-106 -308 -124 l-52 -15 -49 72 c-175 260 -287 604 -326 998 l-7 65 39 11 c21
6 44 11 50 12 7 0 42 -59 79 -131z"/>
<path d="M2481 2979 c-219 -43 -376 -261 -342 -476 30 -191 173 -334 364 -364
221 -35 435 124 478 355 32 172 -72 371 -234 446 -97 46 -175 57 -266 39z
m177 -185 c82 -33 134 -99 151 -190 33 -173 -128 -330 -299 -293 -120 26 -201
126 -203 248 -1 182 181 304 351 235z"/>
<path d="M4645 4761 c-44 -26 -113 -105 -121 -137 -14 -55 46 -114 100 -100
32 8 121 88 142 128 21 41 17 66 -15 99 -34 34 -64 37 -106 10z"/>
<path d="M473 584 c-43 -21 -120 -105 -129 -140 -14 -55 45 -114 100 -100 35
9 120 87 140 130 22 47 6 93 -40 112 -40 17 -32 17 -71 -2z"/>
<path d="M4574 586 c-43 -19 -60 -66 -38 -112 20 -42 104 -121 137 -129 55
-14 116 47 103 101 -7 27 -65 95 -105 123 -39 27 -63 31 -97 17z"/>
</g>
</svg>
