<?xml version="1.0" standalone="no"?>
<!DOCTYPE svg PUBLIC "-//W3C//DTD SVG 20010904//EN"
 "http://www.w3.org/TR/2001/REC-SVG-20010904/DTD/svg10.dtd">
<svg version="1.0" xmlns="http://www.w3.org/2000/svg"
 width="512.000000pt" height="512.000000pt" viewBox="0 0 512.000000 512.000000"
 preserveAspectRatio="xMidYMid meet">

<g transform="translate(0.000000,512.000000) scale(0.100000,-0.100000)"
fill="#000000" stroke="none">
<path d="M4870 5107 c-30 -10 -51 -36 -137 -165 l-103 -152 0 -691 0 -691 -37
34 c-76 68 -174 108 -265 108 l-38 0 0 85 0 85 39 0 c50 0 103 36 118 80 27
78 10 174 -38 214 l-31 26 -614 0 c-675 0 -657 2 -689 -60 -21 -41 -20 -163 2
-201 20 -34 68 -59 112 -59 l31 0 0 -85 0 -85 -355 0 c-440 0 -478 -7 -581
-102 -55 -50 -82 -94 -104 -166 l-18 -57 -158 -5 c-88 -3 -165 -9 -171 -13 -9
-6 -13 -38 -13 -103 l0 -94 -85 0 c-46 0 -108 -5 -137 -11 -113 -24 -217 -96
-280 -193 -77 -120 -72 -47 -78 -1128 l-5 -966 -30 -44 c-17 -23 -51 -54 -75
-68 -38 -21 -58 -24 -135 -25 -117 0 -174 26 -220 100 l-30 48 -3 1389 -2
1388 205 452 206 452 -3 146 -3 145 -525 0 -525 0 -5 -140 -5 -140 207 -458
208 -458 0 -1387 c0 -1126 3 -1396 14 -1437 49 -186 195 -311 391 -337 259
-33 466 76 552 292 17 42 18 116 23 1015 l5 970 22 42 c43 80 111 113 234 113
l79 0 0 -95 c0 -112 3 -115 109 -115 52 0 71 -4 71 -13 0 -7 -41 -183 -90
-392 l-91 -378 3 -576 3 -576 27 -51 c54 -102 145 -154 270 -154 l68 0 0 -194
c0 -164 3 -197 16 -210 23 -24 355 -24 378 0 13 13 16 46 16 210 l0 194 363 0
362 0 33 -73 c92 -204 293 -338 512 -341 103 -1 172 15 266 60 124 61 236 183
281 306 14 40 21 48 42 48 73 1 177 80 217 165 l24 50 0 553 0 552 41 0 c22 0
54 8 70 17 63 37 59 -59 59 1520 l0 1438 80 120 c68 101 80 126 80 161 0 49
-28 90 -76 110 -39 16 -39 16 -84 1z m75 -83 c9 -10 15 -24 12 -34 -2 -9 -41
-71 -86 -138 l-81 -121 0 -1450 c0 -1440 0 -1450 -20 -1461 -26 -14 -58 2 -65
33 -3 12 -4 672 -3 1467 l3 1445 93 138 c96 142 112 155 147 121z m-3867 -481
l3 -83 -146 0 c-82 0 -155 -5 -166 -10 -23 -13 -25 -55 -3 -64 9 -3 76 -6 150
-6 74 0 134 -3 134 -6 0 -3 -84 -190 -186 -415 l-187 -410 -59 3 -59 3 -184
405 c-102 223 -185 408 -185 413 0 4 27 7 60 7 48 0 61 4 70 19 13 25 13 27
-6 45 -11 12 -35 16 -85 16 l-69 0 0 85 0 85 458 -2 457 -3 3 -82z m3286 -589
c19 -19 22 -124 4 -142 -9 -9 -159 -12 -615 -12 l-603 0 -10 26 c-17 43 -12
102 10 124 20 20 33 20 609 20 523 0 591 -2 605 -16z m-154 -319 l0 -85 -34 0
c-32 0 -66 -20 -66 -40 0 -5 7 -16 16 -24 12 -13 40 -16 138 -16 86 0 136 -5
169 -16 64 -22 139 -91 168 -156 l24 -53 0 -715 0 -715 -280 -3 c-153 -1 -283
-6 -288 -11 -5 -5 -7 -21 -3 -35 l6 -26 283 -2 282 -3 3 -500 c2 -275 0 -523
-3 -551 -8 -64 -44 -123 -98 -158 -66 -42 -72 -38 -73 52 -1 157 -57 296 -164
402 -112 113 -250 170 -408 170 -182 0 -340 -76 -452 -217 -81 -103 -120 -218
-120 -358 l0 -86 -627 4 c-385 3 -638 9 -654 15 -42 17 -91 64 -110 107 -17
37 -19 78 -19 583 l0 542 154 0 c128 0 156 3 167 16 9 11 10 20 2 32 -9 14
-33 17 -162 20 -83 1 -151 7 -151 12 0 28 345 1452 360 1486 22 50 76 106 133
136 41 23 48 23 456 26 278 2 419 6 428 14 9 7 13 43 13 124 l0 114 455 0 455
0 0 -85z m-3548 -1542 l3 -1378 23 -47 c29 -58 80 -111 135 -141 37 -19 57
-22 167 -22 110 0 130 3 166 22 67 36 101 70 131 131 l28 57 5 970 5 970 27
57 c37 79 98 142 176 181 61 29 76 32 179 35 l113 4 0 -41 0 -41 -64 0 c-160
0 -256 -49 -313 -158 l-33 -64 0 -928 c0 -585 -4 -947 -10 -981 -23 -118 -100
-219 -208 -271 -59 -28 -80 -32 -173 -36 -80 -3 -120 0 -165 13 -119 34 -211
118 -253 230 -21 55 -21 64 -21 1435 l0 1380 40 0 40 0 2 -1377z m1473 1015
c-4 -18 -30 -130 -58 -248 l-52 -215 -63 -3 -62 -3 0 251 0 250 120 0 121 0
-6 -32z m1896 -2058 c172 -53 310 -214 340 -395 22 -137 -28 -298 -128 -406
-102 -109 -213 -159 -356 -159 -143 0 -254 45 -352 144 -106 106 -151 227
-143 386 3 74 9 97 41 164 61 129 177 230 311 272 65 20 213 17 287 -6z
m-1513 -802 l2 -168 -125 0 -125 0 0 163 c0 90 3 167 7 171 4 3 59 5 122 4
l116 -3 3 -167z"/>
<path d="M2404 1796 c-3 -8 -4 -23 -2 -33 3 -17 18 -18 198 -18 l195 0 0 30 0
30 -193 3 c-161 2 -193 0 -198 -12z"/>
<path d="M3301 4961 l-61 -110 -108 -59 c-149 -82 -148 -91 12 -177 l101 -54
45 -87 c87 -167 99 -171 166 -46 71 131 76 136 190 197 96 52 105 59 102 83
-3 22 -20 36 -111 87 l-108 60 -58 105 c-47 86 -62 106 -83 108 -23 3 -32 -8
-87 -107z m134 -94 c37 -65 47 -75 110 -110 39 -21 73 -41 78 -46 4 -4 -28
-27 -71 -51 -75 -41 -80 -46 -121 -122 -32 -58 -46 -76 -52 -67 -5 8 -26 44
-45 81 -34 64 -41 70 -115 110 -43 23 -76 44 -73 47 3 3 38 24 77 46 66 37 75
46 116 118 24 43 47 75 50 72 3 -4 24 -39 46 -78z"/>
<path d="M1814 4382 l-58 -108 -108 -59 c-105 -56 -133 -84 -109 -108 6 -6 56
-35 113 -66 l102 -56 61 -110 c81 -149 88 -149 170 0 l60 110 104 56 c105 57
126 76 116 101 -3 8 -54 41 -114 73 l-108 59 -58 108 c-52 98 -61 108 -86 108
-25 0 -33 -10 -85 -108z m134 -89 c40 -75 44 -80 117 -118 41 -22 75 -43 75
-46 0 -3 -24 -18 -52 -34 -89 -47 -106 -63 -145 -135 -20 -39 -41 -70 -45 -70
-4 0 -24 32 -44 70 -39 74 -56 91 -141 134 -29 14 -53 30 -53 34 0 4 28 23 63
41 84 46 92 54 134 133 19 37 39 68 42 68 4 0 26 -35 49 -77z"/>
</g>
</svg>
