<?xml version="1.0" standalone="no"?>
<!DOCTYPE svg PUBLIC "-//W3C//DTD SVG 20010904//EN"
 "http://www.w3.org/TR/2001/REC-SVG-20010904/DTD/svg10.dtd">
<svg version="1.0" xmlns="http://www.w3.org/2000/svg"
 width="512.000000pt" height="512.000000pt" viewBox="0 0 512.000000 512.000000"
 preserveAspectRatio="xMidYMid meet">

<g transform="translate(0.000000,512.000000) scale(0.100000,-0.100000)"
fill="#000000" stroke="none">
<path d="M3037 5106 c-92 -33 -157 -125 -157 -220 0 -123 104 -236 215 -236
l35 0 0 -89 0 -89 -112 -4 c-86 -2 -123 -8 -153 -22 -24 -12 -118 -98 -231
-210 -220 -220 -222 -222 -211 -385 5 -83 12 -102 182 -526 200 -496 196 -488
239 -533 52 -56 100 -75 199 -80 l87 -4 0 -329 0 -329 -163 0 -163 0 -12 57
c-16 76 -53 127 -115 158 l-51 25 -348 0 -349 0 -24 -25 c-32 -31 -32 -69 0
-100 l24 -25 340 0 340 0 20 -26 c18 -23 21 -41 21 -125 l0 -99 -635 0 -635 0
0 99 c0 84 3 102 21 125 20 25 24 26 125 26 98 0 107 2 129 25 30 30 32 64 4
99 -20 25 -23 26 -139 26 -109 0 -121 -2 -171 -28 -39 -20 -62 -41 -84 -77
l-30 -48 -5 -476 c-4 -376 -8 -481 -19 -501 -7 -14 -43 -73 -79 -131 l-65
-107 -116 -4 c-74 -3 -129 -10 -152 -20 -55 -24 -119 -87 -145 -143 -23 -49
-24 -57 -24 -339 0 -272 1 -290 21 -325 11 -20 36 -48 56 -61 l37 -25 1245 -3
c685 -1 1261 0 1279 3 40 7 101 59 118 102 9 21 14 73 14 143 l0 111 111 -3
112 -3 12 -40 c43 -143 165 -262 310 -300 206 -53 416 48 508 245 25 51 32 81
35 148 12 215 -111 391 -313 452 -41 12 -41 12 -52 80 -14 93 -46 154 -117
226 -84 83 -142 105 -301 113 l-120 6 -5 1038 c-5 1014 -5 1039 -24 1053 -42
30 -98 12 -115 -37 -8 -23 -11 -331 -11 -1045 l0 -1014 -75 0 -75 0 0 1685 0
1685 75 0 74 0 3 -506 3 -506 28 -24 c34 -29 56 -30 91 -3 l26 20 2 507 3 507
48 7 c161 23 250 194 176 339 -24 48 -89 103 -138 117 -57 18 -584 15 -634 -2z
m619 -160 c37 -31 38 -84 4 -121 l-23 -25 -279 0 -279 0 -24 25 c-35 34 -33
78 4 116 l29 29 271 0 c270 0 270 0 297 -24z m-526 -1356 l0 -730 -64 0 c-117
0 -104 -21 -313 500 -175 437 -182 458 -183 525 l0 71 183 182 183 182 97 0
97 0 0 -730z m0 -1775 l0 -85 -165 0 -165 0 0 85 0 85 165 0 165 0 0 -85z
m-480 -370 c6 -324 3 -308 86 -441 24 -40 44 -74 44 -78 0 -3 -344 -6 -765 -6
-421 0 -765 3 -765 6 0 4 21 40 47 82 81 129 82 138 83 455 l0 277 633 -2 632
-3 5 -290z m480 -15 l0 -150 -165 0 -165 0 0 150 0 150 165 0 165 0 0 -150z
m700 -321 c82 -37 134 -106 146 -192 l6 -43 -43 -13 c-144 -43 -250 -144 -296
-281 l-22 -65 -108 0 -108 0 -6 105 c-6 122 -23 165 -89 224 -63 57 -100 69
-232 74 l-116 4 -61 98 c-34 54 -61 101 -61 104 0 3 213 6 473 6 453 0 474 -1
517 -21z m-655 -353 c55 -23 75 -66 75 -163 l0 -83 -218 0 c-207 0 -220 -1
-237 -20 -25 -28 -23 -76 4 -103 21 -21 31 -22 237 -25 l215 -3 -3 -102 -3
-102 -1230 0 -1230 0 -3 102 -3 103 875 2 c843 3 875 4 895 22 27 25 28 79 1
106 -20 20 -33 20 -895 20 l-875 0 0 89 c0 99 15 131 74 157 48 21 2271 20
2321 0z m988 -50 c106 -46 177 -149 177 -259 0 -33 -5 -77 -11 -97 -18 -59
-78 -130 -139 -164 -49 -27 -64 -31 -135 -31 -71 0 -86 4 -135 31 -61 34 -121
105 -139 164 -59 196 98 394 297 375 30 -3 68 -11 85 -19z"/>
<path d="M1712 1530 c-63 -39 -73 -69 -70 -210 3 -143 13 -165 85 -200 39 -20
56 -21 301 -18 290 3 289 3 340 78 20 30 22 45 22 149 0 131 -12 164 -72 201
-31 19 -51 20 -303 20 -252 0 -272 -1 -303 -20z m528 -205 l0 -75 -225 0 -225
0 0 75 0 75 225 0 225 0 0 -75z"/>
<path d="M4001 484 c-34 -44 -26 -86 21 -110 50 -26 108 9 108 64 0 35 -38 72
-75 72 -24 0 -39 -7 -54 -26z"/>
</g>
</svg>
