<?xml version="1.0" standalone="no"?>
<!DOCTYPE svg PUBLIC "-//W3C//DTD SVG 20010904//EN"
 "http://www.w3.org/TR/2001/REC-SVG-20010904/DTD/svg10.dtd">
<svg version="1.0" xmlns="http://www.w3.org/2000/svg"
 width="512.000000pt" height="512.000000pt" viewBox="0 0 512.000000 512.000000"
 preserveAspectRatio="xMidYMid meet">

<g transform="translate(0.000000,512.000000) scale(0.100000,-0.100000)"
fill="#000000" stroke="none">
<path d="M3505 5006 c-68 -32 -131 -98 -155 -163 -16 -44 -20 -78 -20 -187 l0
-134 -132 -4 c-116 -3 -140 -7 -183 -28 -66 -32 -137 -104 -166 -168 l-24 -52
-216 0 -217 0 -7 37 c-15 80 -70 153 -142 189 -36 18 -76 19 -872 22 -908 3
-881 4 -984 -53 -103 -58 -184 -173 -207 -294 -6 -32 -10 -271 -10 -601 l0
-547 -35 -6 c-50 -8 -94 -43 -116 -91 -18 -39 -19 -87 -19 -1008 0 -659 3
-976 11 -995 15 -42 46 -71 249 -233 180 -144 186 -150 203 -202 19 -61 75
-159 115 -201 l26 -27 -257 0 c-280 0 -316 -6 -338 -54 -14 -30 -5 -70 21 -96
20 -20 44 -20 2530 -20 l2511 0 25 26 c22 21 25 31 19 62 -3 20 -6 48 -5 62 0
14 3 145 6 291 6 295 -1 352 -52 444 -76 137 -213 215 -376 215 l-78 0 0 330
c0 182 2 330 5 330 3 0 22 -8 43 -19 54 -27 131 -41 230 -41 123 1 192 36 221
113 15 38 15 506 0 544 -14 38 -57 83 -96 99 -51 22 -227 18 -307 -6 -36 -11
-68 -25 -71 -30 -3 -6 -10 -10 -16 -10 -5 0 -9 342 -9 893 0 1025 5 966 -83
1052 -32 31 -68 55 -93 63 -28 8 -118 12 -271 12 l-230 0 -5 139 c-4 119 -8
145 -30 192 -35 77 -70 113 -140 148 -80 41 -177 43 -253 7z m189 -165 c49
-33 55 -55 56 -193 l0 -128 -126 0 -126 0 4 136 3 136 37 34 c31 28 46 34 80
34 26 0 55 -8 72 -19z m-1503 -517 c24 -25 24 -29 27 -239 l3 -214 -482 -643
c-265 -354 -487 -649 -494 -656 -9 -10 -97 26 -459 190 l-447 203 3 595 c3
581 4 596 24 640 27 58 67 97 129 126 l50 24 811 0 811 0 24 -26z m2216 2 c27
-23 28 -29 31 -124 l4 -101 -464 -3 c-360 -3 -471 -7 -498 -17 -61 -24 -135
-79 -168 -125 -67 -93 -66 -85 -70 -578 -2 -315 0 -459 8 -489 10 -36 44 -75
218 -251 129 -130 221 -215 247 -228 39 -19 61 -20 383 -20 l342 0 0 -212 c0
-200 -1 -210 -17 -196 -107 92 -280 219 -310 227 -23 7 -173 11 -383 11 -313
0 -349 -2 -385 -19 -90 -41 -104 -82 -105 -317 0 -100 5 -205 10 -234 20 -108
86 -197 185 -248 l50 -27 475 -5 475 -5 0 -85 0 -85 -265 -5 c-274 -6 -289 -8
-370 -53 -50 -28 -127 -105 -156 -155 -35 -59 -52 -122 -60 -219 l-7 -84 -81
3 -81 3 -6 57 c-22 204 -148 384 -331 471 l-88 42 3 1496 2 1496 27 35 c54 70
22 68 725 68 l632 0 28 -24z m-1589 -313 l3 -83 -216 0 -215 0 0 85 0 85 213
-2 212 -3 3 -82z m1620 -770 l2 -683 -322 0 -323 0 -192 192 -193 193 0 403
c0 269 4 418 11 448 15 58 67 110 123 123 22 5 232 8 466 7 l425 -1 3 -682z
m-1618 -233 c0 -510 -3 -740 -11 -740 -5 0 -102 39 -215 87 l-204 88 0 652 0
653 215 0 215 0 0 -740z m-602 -528 l-3 -369 -404 184 c-223 101 -407 185
-409 188 -3 2 179 250 404 550 l409 545 3 -364 c1 -201 1 -531 0 -734z m-721
-231 l1318 -599 3 -185 2 -184 -64 -7 c-269 -27 -492 -242 -529 -509 l-11 -87
-297 0 -296 0 -6 64 c-32 347 -374 595 -718 522 -144 -31 -284 -126 -367 -250
-46 -69 -92 -177 -92 -218 0 -10 -5 -18 -10 -18 -6 0 -67 45 -135 100 l-125
101 0 934 c0 514 2 935 4 935 3 0 598 -270 1323 -599z m3453 -77 l0 -217 -94
5 c-74 4 -103 10 -137 29 -159 88 -139 323 33 386 18 6 70 12 116 12 l82 1 0
-216z m-2262 -42 l132 -56 0 -119 c0 -91 -3 -118 -12 -114 -7 3 -104 47 -215
98 l-203 92 0 113 0 113 83 -35 c45 -20 142 -61 215 -92z m1563 -233 l189
-151 0 -104 0 -104 -451 0 c-441 0 -452 0 -489 21 -21 12 -48 40 -61 63 -23
39 -24 52 -27 234 l-4 192 327 0 327 0 189 -151z m-3150 -799 c222 -42 376
-258 342 -481 -33 -209 -207 -359 -418 -359 -191 0 -349 116 -405 298 -62 199
31 416 216 504 95 45 170 56 265 38z m1790 0 c252 -48 404 -299 329 -542 -56
-182 -214 -298 -405 -298 -120 0 -214 39 -297 123 -165 165 -168 422 -7 592
99 105 240 151 380 125z m1905 -99 c51 -23 105 -76 129 -127 11 -23 20 -70 23
-117 l5 -77 -599 2 -599 3 3 75 c2 50 9 88 23 117 24 50 99 119 143 132 17 5
211 10 431 10 370 1 403 -1 441 -18z m-2546 -503 c0 -26 51 -121 95 -179 l45
-59 -470 0 -470 0 45 59 c44 58 95 153 95 179 0 9 73 12 330 12 257 0 330 -3
330 -12z m1330 -70 c1 -46 5 -102 9 -125 l8 -43 -179 0 -180 0 37 43 c20 23
55 79 77 125 l40 82 94 0 94 0 0 -82z m350 -43 l0 -125 -63 0 c-55 0 -67 3
-87 25 -22 23 -25 37 -28 125 l-4 100 91 0 91 0 0 -125z m340 0 l0 -125 -85 0
-85 0 0 125 0 125 85 0 85 0 0 -125z m340 0 l0 -125 -85 0 -85 0 0 125 0 125
85 0 85 0 0 -125z m340 35 c0 -95 -14 -142 -45 -154 -9 -3 -41 -6 -71 -6 l-54
0 0 125 0 125 85 0 85 0 0 -90z"/>
<path d="M3205 2548 c-52 -30 -61 -90 -19 -132 24 -23 34 -26 99 -26 63 0 76
3 99 25 42 39 35 105 -15 130 -33 18 -136 19 -164 3z"/>
<path d="M3611 3726 c-32 -34 -31 -81 3 -114 26 -26 30 -27 140 -27 107 0 116
2 140 24 34 32 36 88 3 119 -21 20 -34 22 -143 22 -114 0 -122 -1 -143 -24z"/>
<path d="M4122 3727 c-30 -32 -29 -87 1 -114 66 -62 166 1 136 86 -13 37 -35
51 -82 51 -22 0 -41 -8 -55 -23z"/>
<path d="M369 2531 c-32 -33 -37 -65 -13 -99 21 -31 550 -295 588 -294 63 2
97 77 60 130 -20 28 -544 292 -580 292 -15 0 -38 -12 -55 -29z"/>
<path d="M369 2191 c-16 -17 -29 -40 -29 -54 0 -51 42 -79 318 -216 257 -127
271 -133 302 -122 18 6 39 19 46 28 16 22 18 67 4 94 -12 22 -558 299 -591
299 -11 0 -34 -13 -50 -29z"/>
<path d="M394 1870 c-26 -10 -54 -48 -54 -73 0 -54 22 -69 308 -211 299 -148
308 -151 352 -104 22 24 26 68 9 99 -10 19 -557 300 -582 298 -7 0 -22 -4 -33
-9z"/>
<path d="M942 921 c-76 -26 -109 -56 -147 -136 -80 -164 44 -355 229 -355 101
1 186 55 232 146 27 55 26 165 -3 220 -31 58 -93 110 -154 128 -67 20 -92 20
-157 -3z m140 -178 c36 -33 31 -98 -11 -130 -29 -22 -80 -15 -106 13 -73 78
38 188 117 117z"/>
<path d="M2732 922 c-61 -22 -114 -69 -145 -127 -29 -54 -30 -164 -3 -219 65
-130 217 -183 344 -120 157 78 190 284 66 408 -65 65 -174 89 -262 58z m146
-188 c29 -33 28 -74 -3 -108 -63 -68 -173 7 -133 90 27 58 93 66 136 18z"/>
</g>
</svg>
